<svg width="19" height="18" viewBox="0 0 19 18" fill="none" xmlns="http://www.w3.org/2000/svg">
<g id="handshake">
<path id="Vector" d="M15.2951 11.9278C14.9225 11.3484 13.0873 9.36704 12.6936 8.85516C12.2998 8.34329 11.2873 5.42391 10.3128 5.13282C9.33825 4.84032 8.37637 4.91626 7.35825 5.21719C6.34012 5.51813 5.38809 5.49001 4.25747 5.16938C3.12684 4.84876 1.92028 4.09219 1.92028 4.09219C1.39575 4.49297 1.12575 5.61235 1.0695 7.19579C1.01325 8.77922 1.31137 9.63985 1.41544 9.90141C1.5195 10.163 2.30137 10.5497 3.18169 11.2303C3.25762 11.288 9.507 15.5574 9.63919 15.6178C10.594 16.0524 11.2015 15.1734 11.2015 15.1734C11.2015 15.1734 11.7078 15.4631 12.1972 15.1734C12.7948 14.8191 12.7245 14.3789 12.7245 14.3789C12.7245 14.3789 13.3039 14.4731 13.654 14.2439C14.322 13.8066 14.1068 13.3017 14.1068 13.3017C14.1068 13.3017 14.7031 13.493 15.0547 13.178C15.4062 12.863 15.6664 12.5072 15.2951 11.9278Z" fill="#FFCA28"/>
<path id="Vector_2" d="M8.71257 14.3409C8.70413 14.3184 8.69569 14.2959 8.68304 14.2734C8.41022 13.7461 7.89132 13.7672 7.86882 13.7489C7.83929 13.7264 7.84491 13.3327 7.81257 13.1794C7.64101 12.3764 6.71288 12.3975 6.68897 12.3806C6.65663 12.3595 6.82679 11.8111 6.2896 11.3484C6.16163 11.2373 5.96757 11.2486 5.79882 11.2683C5.32491 11.3259 5.10835 11.5481 5.0746 11.5411C4.99444 11.5256 5.08444 10.9378 4.50226 10.9181C4.07897 10.9041 3.80194 11.1108 3.56851 11.4314C3.32944 11.7605 3.18038 12.0937 3.45179 12.4833C3.79351 12.9741 4.16757 12.8419 4.16757 12.8419C4.16757 12.8419 4.05507 13.4423 4.3996 13.763C4.74413 14.0836 5.43882 14.0639 5.43882 14.0639C5.43882 14.0639 5.38116 14.7727 5.88179 15.1102C6.38241 15.4477 6.98288 15.1411 6.98288 15.1411C6.98288 15.1411 7.21632 15.7458 7.89835 15.6572C8.49601 15.5812 8.93897 14.9358 8.71257 14.3409Z" fill="#FFCA28"/>
<path id="Vector_3" d="M15.3895 12.1106C15.3641 12.0712 15.343 12.0389 15.3402 11.9911C15.3374 11.9376 13.9115 10.0462 13.311 9.28546C13.432 9.63281 13.6063 9.96327 13.8285 10.2572C14.1871 10.7325 14.6905 11.1783 14.7004 11.7731C14.7046 12.0656 14.5752 12.3581 14.3545 12.5508C14.1337 12.7434 13.8271 12.8334 13.5374 12.7884C13.4446 12.7744 13.311 12.7744 13.2998 12.8672C13.2955 12.8939 13.3068 12.9206 13.3152 12.9473C13.408 13.2342 13.2941 13.5689 13.0593 13.7573C12.8245 13.9472 12.4898 13.9908 12.2043 13.8923C12.1298 13.867 12.0313 13.8375 11.9849 13.9008C11.9484 13.95 11.9723 14.0175 11.9891 14.0751C12.0777 14.3901 11.8682 14.7389 11.5673 14.8683C11.2677 14.9976 10.9091 14.9358 10.6279 14.7698C10.566 14.7333 10.4676 14.7009 10.4366 14.767C10.4268 14.7867 10.4296 14.8106 10.431 14.8317C10.4423 15.0497 10.3396 15.2719 10.1652 15.4041C9.99086 15.5362 9.75039 15.5756 9.54227 15.5053L9.49023 15.5376C9.55211 15.5742 9.60414 15.6009 9.63789 15.6164C10.5927 16.0509 11.2002 15.172 11.2002 15.172C11.2002 15.172 11.7065 15.4617 12.1959 15.172C12.7935 14.8176 12.7232 14.3775 12.7232 14.3775C12.7232 14.3775 13.3026 14.4717 13.6527 14.2425C14.3207 13.8051 14.1055 13.3003 14.1055 13.3003C14.1055 13.3003 14.7018 13.4916 15.0534 13.1766C15.1405 13.0992 15.2235 13.0176 15.2952 12.9262C15.4359 12.7462 15.5076 12.5325 15.4598 12.3047C15.4457 12.2372 15.426 12.1683 15.3895 12.1106Z" fill="#FFB300"/>
<path id="Vector_4" d="M10.8529 14.8866C11.2776 15.1509 11.4491 15.2662 11.4491 15.2662C11.2959 15.2845 10.9612 15.3478 10.161 14.7291C9.94024 14.5589 9.05993 13.8783 9.46774 13.7109C9.76868 13.5872 10.2552 14.5153 10.8529 14.8866Z" fill="#D69513"/>
<path id="Vector_5" d="M12.7119 14.4338C12.4475 14.4113 11.4097 13.808 10.6053 12.9783C10.521 12.8911 10.4422 12.8166 10.3761 12.7533C10.296 12.6759 10.2932 12.548 10.3705 12.4664C10.4478 12.3848 10.5758 12.3834 10.6574 12.4608C10.7249 12.5255 10.8036 12.6028 10.8908 12.69C11.0736 12.8714 11.5405 13.3959 12.4616 14.0288C12.6683 14.1708 12.9285 14.3142 13.1675 14.3916C13.1943 14.4 12.9749 14.4563 12.7119 14.4338Z" fill="#D69513"/>
<path id="Vector_6" d="M13.7877 13.1991C13.228 12.953 12.6824 12.4467 11.743 11.2416C11.6741 11.153 11.6854 11.0264 11.7725 10.9561C11.8597 10.8858 11.9877 10.8984 12.058 10.9856C12.3589 11.3541 12.6683 11.7169 13.0002 12.0586C13.131 12.1936 13.7399 12.7167 13.8172 12.7716C14.5471 13.2778 14.8466 13.3116 14.8466 13.3116C14.7608 13.3467 14.4289 13.4803 13.7877 13.1991Z" fill="#D69513"/>
<path id="Vector_7" d="M1.71082 10.2248C1.64754 10.1784 1.70519 10.08 1.77551 10.1123C2.18754 10.298 2.76691 10.5694 3.20566 10.793C3.60926 10.9983 3.85676 11.1206 3.85676 11.1206L3.45035 11.5158L1.71082 10.2248Z" fill="#D69513"/>
<path id="Vector_8" d="M17.8406 6.57421C17.6324 5.18906 17.3582 4.24687 17.1543 4.01906C16.9209 3.76031 16.5201 4.275 15.6721 4.57593C14.8242 4.87687 13.297 4.99078 13.297 4.99078C13.297 4.99078 10.6265 4.98515 9.69135 5.24671C8.95307 5.45343 8.03901 6.03843 7.2712 6.5025C6.65807 6.87375 6.10542 7.11703 6.05901 7.38562C6.01542 7.64156 6.29948 8.2139 7.00542 8.27156C8.15151 8.36578 9.3637 7.64156 9.3637 7.64156C9.75604 7.41937 9.90229 7.39265 10.6856 7.39265C11.4689 7.39265 12.276 7.99031 12.3337 8.08593C12.9187 9.04921 13.4446 9.53859 13.9818 10.1911C14.3742 10.6678 15.2967 11.9292 15.2967 11.9292C15.2967 11.9292 16.3331 10.7044 16.5974 10.4217C16.8618 10.1391 17.842 9.42328 17.842 9.42328C17.842 9.42328 18.0585 8.02406 17.8406 6.57421Z" fill="#FFCA28"/>
<path id="Vector_9" d="M15.3373 10.8169C15.2515 10.3022 15.0026 9.79734 15.1208 9.2925C15.139 9.21797 15.1559 9.14344 15.1644 9.0675C15.2037 8.66531 14.824 8.84109 14.7678 8.84672C14.6229 8.86219 12.9579 8.80031 13.1436 8.98875L15.2951 11.8997C15.2951 11.8997 15.3795 11.873 15.3992 11.6648C15.4203 11.4539 15.3444 10.8605 15.3373 10.8169Z" fill="#FFB300"/>
<path id="Vector_10" d="M13.9817 9.02109L12.2534 8.42203C12.4812 8.64703 12.6711 8.89031 12.8876 9.1139C13.5458 9.88031 14.54 11.1825 15.2797 11.925C15.3106 11.9559 15.3598 11.9166 15.3373 11.88C14.9267 11.2317 13.872 9.55687 13.8172 9.39234C13.7131 9.07312 13.9817 9.02109 13.9817 9.02109Z" fill="#D69513"/>
<path id="Vector_11" d="M10.8262 7.68375C11.466 7.79766 11.6573 7.95094 12.1818 8.35172C13.4699 9.33328 14.6442 8.96063 14.7946 8.91422C15.6215 8.67094 14.1182 8.67094 13.882 8.57953C11.9821 8.13516 11.8612 6.74578 9.55916 7.37438C8.7815 7.65844 7.51307 8.68078 6.51885 7.97344C6.37682 7.87219 6.149 7.66828 6.17432 7.44188C6.22213 7.00313 7.38369 6.74016 7.88572 6.28875C8.57057 5.7586 9.42838 5.35078 10.2679 5.13422C9.85588 5.08781 9.3876 5.17641 9.04588 5.2875C8.13041 5.58703 7.49619 6.2775 6.52166 6.66281C5.71588 6.98063 5.78478 7.25063 5.78619 7.43766C5.7876 7.62469 5.93525 8.11406 6.38103 8.35453C8.06291 9.25875 9.26244 7.40391 10.8262 7.68375Z" fill="#D69513"/>
<path id="Vector_12" d="M8.80676 15.0258C8.75614 15.1523 8.54239 15.3703 8.43129 15.4069C8.43129 15.4069 8.76739 14.6728 8.58598 14.3423C8.47489 14.0639 8.14301 13.9613 7.86879 14.0231C7.42723 14.1652 7.1516 14.8402 7.07848 15.2564C7.05879 15.3647 6.94067 15.1692 6.95754 14.9513C7.0152 14.2144 7.58051 13.9289 7.64239 13.2806C7.68176 12.8798 7.29786 12.5902 6.90411 12.6731C6.39082 12.7308 6.15317 13.223 5.90707 13.6223C5.79879 13.8136 5.57942 14.1792 5.55692 14.3972C5.53723 14.587 5.49082 14.6264 5.44582 14.3902C5.25035 13.3875 6.51035 12.5227 6.43301 11.9784C6.35145 11.4019 5.92817 11.2978 5.56254 11.4652C5.01692 11.7169 4.48254 12.6042 4.27582 13.0233C4.21676 13.1077 4.17036 13.3369 4.17036 13.3369C3.97348 12.8531 4.39676 12.2105 4.6077 11.9053C4.6991 11.7506 4.89739 11.565 4.81442 11.3766C4.68645 11.0841 4.46848 11.0911 4.29129 11.1263C3.83426 11.2177 3.31957 11.8716 3.31957 11.8716C3.3027 11.7056 3.50942 11.3766 3.66973 11.1881C4.06911 10.7072 4.92973 10.62 5.23067 11.3527C6.0491 10.793 6.91817 11.1277 6.88582 12.1753C6.91817 12.2709 7.27676 12.157 7.71129 12.4903C8.14723 12.8236 8.01223 13.5802 8.01223 13.5802C8.01223 13.5802 8.44817 13.6266 8.68864 13.9289C8.91082 14.2088 8.94598 14.7319 8.80676 15.0258Z" fill="#D69513"/>
<path id="Vector_13" d="M15.0869 11.4792C15.0869 11.4792 16.1163 10.4484 16.4861 10.2108C16.856 9.97313 17.396 9.64828 17.4143 9.73969C17.4325 9.8311 16.5536 10.4498 16.2232 10.838C15.8941 11.2275 15.34 11.8786 15.34 11.8786L15.0869 11.4792Z" fill="#D69513"/>
</g>
</svg>
